<svg width="30" height="30" viewBox="0 0 30 30" fill="none" xmlns="http://www.w3.org/2000/svg">
<path d="M4.6875 12V25.8281C4.6875 26.0768 4.78627 26.3152 4.96209 26.491C5.1379 26.6669 5.37636 26.7656 5.625 26.7656H11.25V18.7969C11.25 18.4239 11.3982 18.0662 11.6619 17.8025C11.9256 17.5388 12.2833 17.3906 12.6562 17.3906H17.3438C17.7167 17.3906 18.0744 17.5388 18.3381 17.8025C18.6018 18.0662 18.75 18.4239 18.75 18.7969V26.7656H24.375C24.6236 26.7656 24.8621 26.6669 25.0379 26.491C25.2137 26.3152 25.3125 26.0768 25.3125 25.8281V12" stroke="#676767" stroke-linecap="round" stroke-linejoin="round"/>
<path d="M28.125 15L15.6381 3.04683C15.3451 2.73745 14.6602 2.73394 14.3619 3.04683L1.875 15M23.4375 10.4882V3.74995H20.625V7.79292" stroke="#676767" stroke-linecap="round" stroke-linejoin="round"/>
</svg>
