<svg width="32" height="32" viewBox="0 0 32 32" fill="none" xmlns="http://www.w3.org/2000/svg">
<path d="M5.33333 14.6666V25.3333C5.33333 26.0405 5.61428 26.7188 6.11438 27.2189C6.61447 27.719 7.29275 28 7.99999 28H24C24.7072 28 25.3855 27.719 25.8856 27.2189C26.3857 26.7188 26.6667 26.0405 26.6667 25.3333V14.6666" stroke="#676767" stroke-width="1.5" stroke-linecap="round" stroke-linejoin="round"/>
<path d="M16 7.33329C16 6.09562 15.5083 4.90863 14.6332 4.03346C13.758 3.15829 12.571 2.66663 11.3333 2.66663C10.4493 2.66663 9.60143 3.01782 8.97631 3.64294C8.35119 4.26806 8 5.1159 8 5.99996C8 6.88401 8.35119 7.73186 8.97631 8.35698C9.60143 8.9821 10.4493 9.33329 11.3333 9.33329H16M16 7.33329V9.33329M16 7.33329C16 6.09562 16.4917 4.90863 17.3668 4.03346C18.242 3.15829 19.429 2.66663 20.6667 2.66663C21.5507 2.66663 22.3986 3.01782 23.0237 3.64294C23.6488 4.26806 24 5.1159 24 5.99996C24 6.4377 23.9138 6.87115 23.7463 7.27557C23.5787 7.67999 23.3332 8.04745 23.0237 8.35698C22.7142 8.66651 22.3467 8.91204 21.9423 9.07956C21.5379 9.24707 21.1044 9.33329 20.6667 9.33329H16" stroke="#676767" stroke-width="1.5" stroke-linejoin="round"/>
<path d="M16 14.6666V27.9999M4 9.33325H28V14.6666H4V9.33325Z" stroke="#676767" stroke-width="1.5" stroke-linecap="round" stroke-linejoin="round"/>
</svg>
