<svg width="35" height="35" viewBox="0 0 35 35" fill="none" xmlns="http://www.w3.org/2000/svg">
<path d="M30.9896 14.5017C30.9878 15.4298 30.6986 16.3346 30.1617 17.0917C29.6248 17.8487 28.8666 18.4209 27.9913 18.7294C27.5124 18.9092 27.005 19.0006 26.4935 18.9992C25.5654 18.9975 24.6606 18.7083 23.9036 18.1714C23.1465 17.6345 22.5744 16.8762 22.2658 16.0009C22.0859 15.5216 21.9945 15.0137 21.996 14.5017C22.0004 15.0136 21.9085 15.5226 21.7263 16.0009C21.4178 16.876 20.8459 17.6341 20.0891 18.1709C19.3323 18.7078 18.4279 18.9972 17.5 18.9992C16.5721 18.9972 15.6677 18.7078 14.9109 18.1709C14.1542 17.6341 13.5822 16.876 13.2738 16.0009C13.0938 15.5216 13.0024 15.0137 13.004 14.5017C13.0069 15.0136 12.9165 15.5226 12.7342 16.0009C12.4256 16.8762 11.8535 17.6345 11.0964 18.1714C10.3394 18.7083 9.43458 18.9975 8.50646 18.9992C7.99605 19.0021 7.48563 18.9117 7.00876 18.7294C6.13344 18.4209 5.37519 17.8487 4.83829 17.0917C4.30138 16.3346 4.01217 15.4298 4.01042 14.5017L4.68417 12.1349L6.30292 7.51777C6.50918 6.93086 6.89255 6.42246 7.40011 6.06276C7.90766 5.70305 8.51437 5.50979 9.13646 5.50964H25.8635C26.4854 5.51009 27.0918 5.7035 27.599 6.06318C28.1063 6.42286 28.4895 6.9311 28.6956 7.51777L30.3144 12.1349L30.9896 14.5017Z" stroke="#676767" stroke-width="1.5" stroke-linecap="round" stroke-linejoin="round"/>
<path d="M27.9912 18.9993V26.7634C27.9909 27.5581 27.675 28.3202 27.1131 28.8821C26.5511 29.4441 25.7891 29.7599 24.9944 29.7603H10.0042C9.61048 29.7605 9.22063 29.6831 8.85686 29.5326C8.49309 29.3821 8.16255 29.1614 7.88411 28.8831C7.60567 28.6048 7.38479 28.2743 7.23409 27.9106C7.08339 27.5469 7.00583 27.1571 7.00583 26.7634V18.9993M13.004 25.2643H21.996" stroke="#676767" stroke-width="1.5" stroke-linecap="round" stroke-linejoin="round"/>
</svg>
