<svg width="35" height="35" viewBox="0 0 35 35" fill="none" xmlns="http://www.w3.org/2000/svg">
<path d="M30.9895 14.5017C30.9878 15.4298 30.6986 16.3346 30.1617 17.0917C29.6248 17.8487 28.8665 18.4209 27.9912 18.7294C27.5124 18.9092 27.0049 19.0006 26.4935 18.9992C25.5654 18.9975 24.6606 18.7083 23.9036 18.1714C23.1465 17.6345 22.5744 16.8762 22.2658 16.0009C22.0859 15.5216 21.9945 15.0137 21.996 14.5017C22.0004 15.0136 21.9085 15.5226 21.7262 16.0009C21.4177 16.876 20.8458 17.6341 20.089 18.1709C19.3323 18.7078 18.4278 18.9972 17.5 18.9992C16.5721 18.9972 15.6676 18.7078 14.9109 18.1709C14.1541 17.6341 13.5822 16.876 13.2737 16.0009C13.0938 15.5216 13.0024 15.0137 13.0039 14.5017C13.0068 15.0136 12.9164 15.5226 12.7341 16.0009C12.4256 16.8762 11.8534 17.6345 11.0964 18.1714C10.3393 18.7083 9.43453 18.9975 8.50642 18.9992C7.996 19.0021 7.48558 18.9117 7.00871 18.7294C6.13339 18.4209 5.37515 17.8487 4.83824 17.0917C4.30133 16.3346 4.01212 15.4298 4.01038 14.5017L4.68413 12.1349L6.30288 7.51777C6.50913 6.93086 6.8925 6.42246 7.40006 6.06276C7.90762 5.70305 8.51432 5.50979 9.13642 5.50964H25.8635C26.4853 5.51009 27.0917 5.7035 27.599 6.06318C28.1063 6.42286 28.4894 6.9311 28.6956 7.51777L30.3143 12.1349L30.9895 14.5017Z" stroke="#3A915F" stroke-width="1.5" stroke-linecap="round" stroke-linejoin="round"/>
<path d="M27.9912 18.9993V26.7634C27.9908 27.5581 27.6749 28.3202 27.113 28.8821C26.551 29.4441 25.789 29.7599 24.9943 29.7603H10.0041C9.61039 29.7605 9.22053 29.6831 8.85677 29.5326C8.493 29.3821 8.16246 29.1614 7.88402 28.8831C7.60558 28.6048 7.3847 28.2743 7.234 27.9106C7.0833 27.5469 7.00574 27.1571 7.00574 26.7634V18.9993M13.0039 25.2643H21.9959" stroke="#3A915F" stroke-width="1.5" stroke-linecap="round" stroke-linejoin="round"/>
</svg>
