<svg width="23" height="23" viewBox="0 0 23 23" fill="none" xmlns="http://www.w3.org/2000/svg">
<path d="M18.856 7.72656H4.14404C4.1373 7.72656 4.13281 7.73105 4.13281 7.73779V9.78623C4.13281 11.1294 5.2334 12.2188 6.58779 12.2188C7.50195 12.2188 8.29932 11.7246 8.72383 10.9901C8.78896 10.8756 8.9125 10.8037 9.04502 10.8037C9.17754 10.8037 9.29883 10.8756 9.36621 10.9901C9.78848 11.7246 10.5858 12.2188 11.5 12.2188C12.4164 12.2188 13.216 11.7224 13.636 10.9856C13.7012 10.8733 13.8202 10.8037 13.9482 10.8037H13.9617C14.092 10.8037 14.2088 10.8733 14.2739 10.9856C14.6962 11.7224 15.4958 12.2188 16.4122 12.2188C17.7666 12.2188 18.8672 11.1294 18.8672 9.78623V7.73779C18.8672 7.73105 18.8627 7.72656 18.856 7.72656Z" fill="black" fill-opacity="0.15"/>
<path d="M19.8106 6.11162V3.23438C19.8106 2.83682 19.4894 2.51562 19.0918 2.51562H3.90822C3.51066 2.51562 3.18947 2.83682 3.18947 3.23438V6.11162C2.81437 6.13408 2.51564 6.44629 2.51564 6.82812V9.78623C2.5142 10.3299 2.62428 10.8681 2.83908 11.3675C2.93566 11.5966 3.0547 11.8122 3.18947 12.0166V19.7656C3.18947 20.1609 3.51066 20.4844 3.90822 20.4844H19.0918C19.4894 20.4844 19.8106 20.1632 19.8106 19.7656V12.0166C19.9474 11.8117 20.0648 11.5944 20.1609 11.3675C20.3743 10.8666 20.4844 10.3343 20.4844 9.78623V6.82812C20.4844 6.44629 20.1857 6.13408 19.8106 6.11162ZM4.80665 4.13281H18.1934V6.10938H4.80665V4.13281ZM12.9375 18.8694H10.0625V16.5312H12.9375V18.8694ZM18.2024 18.8694H14.375V15.8125C14.375 15.4149 14.0538 15.0938 13.6563 15.0938H9.34376C8.94621 15.0938 8.62501 15.4149 8.62501 15.8125V18.8694H4.80665V13.4294C4.87179 13.4608 4.93917 13.4923 5.0088 13.5192C5.50968 13.7304 6.04201 13.8359 6.59005 13.8359C7.1381 13.8359 7.66818 13.7304 8.1713 13.5192C8.48126 13.389 8.77326 13.2228 9.04054 13.0229C9.04503 13.0206 9.04953 13.0206 9.05402 13.0229C9.32213 13.2236 9.61411 13.3903 9.92326 13.5192C10.4241 13.7304 10.9565 13.8359 11.5045 13.8359C12.0526 13.8359 12.5826 13.7304 13.0858 13.5192C13.3957 13.389 13.6877 13.2228 13.955 13.0229C13.9595 13.0206 13.964 13.0206 13.9685 13.0229C14.2366 13.2236 14.5286 13.3903 14.8377 13.5192C15.3386 13.7304 15.8709 13.8359 16.419 13.8359C16.967 13.8359 17.4971 13.7304 18.0002 13.5192C18.0676 13.49 18.135 13.4608 18.2024 13.4294V18.8694ZM18.8672 9.78623C18.8672 11.1294 17.7666 12.2188 16.4122 12.2188C15.4958 12.2188 14.6962 11.7224 14.2739 10.9856C14.2088 10.8733 14.092 10.8037 13.9617 10.8037H13.9483C13.8202 10.8037 13.7012 10.8733 13.636 10.9856C13.4206 11.3615 13.1094 11.6735 12.7342 11.8901C12.3591 12.1067 11.9332 12.2201 11.5 12.2188C10.5859 12.2188 9.78849 11.7246 9.36622 10.9901C9.29884 10.8756 9.17755 10.8037 9.04503 10.8037C8.91251 10.8037 8.78898 10.8756 8.72384 10.9901C8.50709 11.3645 8.19555 11.6752 7.82056 11.8909C7.44558 12.1065 7.02039 12.2196 6.58781 12.2188C5.23341 12.2188 4.13283 11.1294 4.13283 9.78623V7.73779C4.13283 7.73105 4.13732 7.72656 4.14406 7.72656H18.856C18.8627 7.72656 18.8672 7.73105 18.8672 7.73779V9.78623Z" fill="#3A915F"/>
</svg>
